<?xml version="1.0" encoding="utf-8"?>

<svg version="1.1" id="Layer_1" xmlns="http://www.w3.org/2000/svg" xmlns:xlink="http://www.w3.org/1999/xlink" x="0px" y="0px" viewBox="0 0 3000 2000" style="enable-background:new 0 0 3000 2000;" xml:space="preserve">

<g>
&#x9;<g>
&#x9;&#x9;<g>
&#x9;&#x9;&#x9;<path class="st0" d="M1091.2,1120.67c-4.71,4.65-8.89,6.54-14.42,6.54c-9.88,0-17.62-8.26-17.62-18.79v-0.12&#xA;&#x9;&#x9;&#x9;&#x9;c0-10.64,7.55-18.67,17.56-18.67c6.81,0,10.96,3.12,14.11,6.17l0.44,0.43l3.15-3.24l-0.47-0.43c-4.62-4.24-9.31-7.06-17.18-7.06&#xA;&#x9;&#x9;&#x9;&#x9;c-12.44,0-22.18,10.07-22.18,22.92v0.12c0,13,9.48,22.8,22.06,22.8c8.6,0,13.71-3.89,17.56-7.69l0.45-0.44l-3.04-2.95&#xA;&#x9;&#x9;&#x9;&#x9;L1091.2,1120.67z"></path>
&#x9;&#x9;&#x9;<path class="st0" d="M1119.05,1097.2c-9.43,0-16.82,7.5-16.82,17.07v0.12c0,9.5,7.33,16.94,16.7,16.94&#xA;&#x9;&#x9;&#x9;&#x9;c9.43,0,16.82-7.5,16.82-17.19C1135.75,1104.64,1128.41,1097.2,1119.05,1097.2z M1131.25,1114.39c0,7.34-5.24,12.88-12.2,12.88&#xA;&#x9;&#x9;&#x9;&#x9;c-6.91,0-12.32-5.71-12.32-13.12c0-7.34,5.24-12.88,12.2-12.88c6.91,0,12.32,5.71,12.32,13V1114.39z"></path>
&#x9;&#x9;&#x9;<path class="st0" d="M1162.49,1097.2c-4.49,0-8.15,1.77-10.72,5.15v-4.41h-4.25v32.66h4.25v-18.79c0-6.14,4.33-10.6,10.29-10.6&#xA;&#x9;&#x9;&#x9;&#x9;c5.86,0,9.37,3.78,9.37,10.11v19.29h4.25v-19.84C1175.67,1102.52,1170.5,1097.2,1162.49,1097.2z"></path>
&#x9;&#x9;&#x9;<path class="st0" d="M1203.95,1097.2c-4.49,0-8.15,1.77-10.72,5.15v-4.41h-4.25v32.66h4.25v-18.79c0-6.14,4.33-10.6,10.29-10.6&#xA;&#x9;&#x9;&#x9;&#x9;c5.86,0,9.37,3.78,9.37,10.11v19.29h4.25v-19.84C1217.14,1102.52,1211.96,1097.2,1203.95,1097.2z"></path>
&#x9;&#x9;&#x9;<path class="st0" d="M1243.81,1097.2c-8.71,0-15.53,7.47-15.53,17.01v0.12c0,9.7,6.89,17.01,16.02,17.01&#xA;&#x9;&#x9;&#x9;&#x9;c6.89,0,10.81-3.27,13.45-6.11l0.43-0.46l-3.02-2.66l-0.41,0.44c-3.01,3.23-6.3,4.73-10.33,4.73c-6.2,0-10.91-4.55-11.65-11.15&#xA;&#x9;&#x9;&#x9;&#x9;h25.93l0.07-0.54c0.07-0.52,0.07-0.72,0.07-1.31C1258.85,1104.22,1252.67,1097.2,1243.81,1097.2z M1232.79,1112.17&#xA;&#x9;&#x9;&#x9;&#x9;c0.78-6.39,5.28-10.97,10.9-10.97c6.99,0,10.05,5.76,10.6,10.97H1232.79z"></path>
&#x9;&#x9;&#x9;<path class="st0" d="M1294.86,1122.24c-2.99,3.34-6.38,5.03-10.08,5.03c-6.91,0-12.32-5.71-12.32-13.12&#xA;&#x9;&#x9;&#x9;&#x9;c0-7.22,5.31-12.88,12.08-12.88c4.53,0,7.5,2.4,10.03,4.99l0.44,0.45l3.01-3.1l-0.41-0.43c-2.67-2.78-6.57-5.98-13.01-5.98&#xA;&#x9;&#x9;&#x9;&#x9;c-9.17,0-16.64,7.66-16.64,17.07v0.12c0,9.34,7.46,16.94,16.64,16.94c5.26,0,9.36-1.98,13.28-6.43l0.41-0.46l-3.02-2.66&#xA;&#x9;&#x9;&#x9;&#x9;L1294.86,1122.24z"></path>
&#x9;&#x9;&#x9;<path class="st0" d="M1314.91,1087.9h-4.25v10.04h-4.56v4h4.56v19.96c0,5.7,3.61,9.24,9.43,9.24c1.97,0,3.63-0.36,5.37-1.17&#xA;&#x9;&#x9;&#x9;&#x9;l0.36-0.17v-4.18l-0.87,0.39c-1.69,0.76-2.92,1.06-4.37,1.06c-3.81,0-5.67-1.79-5.67-5.48v-19.66h11.03v-4h-11.03V1087.9z"></path>
&#x9;&#x9;&#x9;<rect x="1337.4" y="1085.62" class="st0" width="4.99" height="5.36"></rect>
&#x9;&#x9;&#x9;<rect x="1337.77" y="1097.94" class="st0" width="4.25" height="32.66"></rect>
&#x9;&#x9;&#x9;<path class="st0" d="M1371.35,1097.2c-4.55,0-8.15,1.73-10.72,5.14v-4.4h-4.25v32.66h4.25v-18.79c0-6.14,4.33-10.6,10.29-10.6&#xA;&#x9;&#x9;&#x9;&#x9;c5.86,0,9.37,3.78,9.37,10.11v19.29h4.25v-19.84C1384.54,1102.52,1379.36,1097.2,1371.35,1097.2z"></path>
&#x9;&#x9;&#x9;<path class="st0" d="M1424.03,1103.03c-2.48-2.92-6.47-5.83-12.51-5.83c-7.56,0-15.71,5.94-15.71,15.53v0.12&#xA;&#x9;&#x9;&#x9;&#x9;c0,9.64,7.99,15.4,15.71,15.4c4.9,0,9.19-2.09,12.51-6.06v2.74c0,7.25-4.38,11.58-11.71,11.58c-4.46,0-8.61-1.45-12.32-4.31&#xA;&#x9;&#x9;&#x9;&#x9;l-0.5-0.39l-2.52,3.47l0.49,0.36c4.4,3.27,9.38,4.93,14.79,4.93c4.81,0,9.02-1.55,11.83-4.37c2.74-2.74,4.19-6.57,4.19-11.1&#xA;&#x9;&#x9;&#x9;&#x9;v-27.17h-4.25V1103.03z M1424.22,1112.79c0,7-6.43,11.34-12.39,11.34c-6.46,0-11.52-5.01-11.52-11.4v-0.12&#xA;&#x9;&#x9;&#x9;&#x9;c0-6.53,4.85-11.28,11.52-11.28c6.09,0,12.39,4.24,12.39,11.34V1112.79z"></path>
&#x9;&#x9;&#x9;<path class="st0" d="M1499.75,1120.67c-4.71,4.65-8.89,6.54-14.42,6.54c-9.88,0-17.62-8.26-17.62-18.79v-0.12&#xA;&#x9;&#x9;&#x9;&#x9;c0-10.64,7.55-18.67,17.56-18.67c6.81,0,10.96,3.12,14.11,6.17l0.44,0.43l3.15-3.24l-0.47-0.43c-4.62-4.24-9.31-7.06-17.18-7.06&#xA;&#x9;&#x9;&#x9;&#x9;c-12.44,0-22.18,10.07-22.18,22.92v0.12c0,13,9.48,22.8,22.06,22.8c8.6,0,13.71-3.89,17.56-7.69l0.45-0.44l-3.04-2.95&#xA;&#x9;&#x9;&#x9;&#x9;L1499.75,1120.67z"></path>
&#x9;&#x9;&#x9;<path class="st0" d="M1525.57,1097.45c-4.81,0-8.47,1.4-11.41,2.77l-0.54,0.25l1.6,3.81l0.59-0.3c3.28-1.68,6.33-2.46,9.58-2.46&#xA;&#x9;&#x9;&#x9;&#x9;c6.28,0,9.74,3.19,9.74,9v0.56c-2.52-0.63-5.51-1.18-9.8-1.18c-8.86,0-14.36,4.16-14.36,10.84v0.12&#xA;&#x9;&#x9;&#x9;&#x9;c0,6.88,6.42,10.47,12.76,10.47c5.75,0,9.37-2.62,11.4-4.85v4.11h4.19v-20.21c0-3.99-1.11-7.03-3.39-9.31&#xA;&#x9;&#x9;&#x9;&#x9;C1533.55,1098.7,1529.96,1097.45,1525.57,1097.45z M1535.18,1118.21c0,5.16-4.85,9.06-11.28,9.06c-4.23,0-8.5-2.26-8.5-6.72&#xA;&#x9;&#x9;&#x9;&#x9;c0-4.21,3.64-6.72,9.74-6.72c4.21,0,7.55,0.66,10.04,1.28V1118.21z"></path>
&#x9;&#x9;&#x9;<path class="st0" d="M1556.86,1104.99v-7.05h-4.25v32.66h4.25v-13.49c0-10.43,6.53-15.1,13-15.1h0.92v-4.54l-0.59-0.02&#xA;&#x9;&#x9;&#x9;&#x9;C1564.87,1097.23,1559.86,1100.14,1556.86,1104.99z"></path>
&#x9;&#x9;&#x9;<path class="st0" d="M1592.78,1097.2c-8.71,0-15.53,7.47-15.53,17.01v0.12c0,9.7,6.89,17.01,16.02,17.01&#xA;&#x9;&#x9;&#x9;&#x9;c6.89,0,10.81-3.27,13.45-6.11l0.43-0.46l-3.02-2.66l-0.41,0.44c-3.02,3.23-6.3,4.73-10.33,4.73c-6.2,0-10.91-4.55-11.65-11.15&#xA;&#x9;&#x9;&#x9;&#x9;h25.93l0.07-0.54c0.06-0.52,0.07-0.72,0.07-1.31C1607.82,1104.22,1601.64,1097.2,1592.78,1097.2z M1581.76,1112.17&#xA;&#x9;&#x9;&#x9;&#x9;c0.78-6.39,5.28-10.97,10.9-10.97c6.99,0,10.04,5.76,10.6,10.97H1581.76z"></path>
&#x9;&#x9;&#x9;<rect x="1642.38" y="1086.23" class="st0" width="4.44" height="44.36"></rect>
&#x9;&#x9;&#x9;<path class="st0" d="M1676.82,1097.2c-4.55,0-8.15,1.73-10.72,5.14v-4.4h-4.25v32.66h4.25v-18.79c0-6.14,4.33-10.6,10.29-10.6&#xA;&#x9;&#x9;&#x9;&#x9;c5.86,0,9.37,3.78,9.37,10.11v19.29h4.25v-19.84C1690.01,1102.52,1684.83,1097.2,1676.82,1097.2z"></path>
&#x9;&#x9;&#x9;<path class="st0" d="M1714.76,1111.89c-4.86-1.4-8.3-2.61-8.3-5.63c0-2.87,2.69-4.87,6.53-4.87c3.05,0,6.36,1.08,9.33,3.04&#xA;&#x9;&#x9;&#x9;&#x9;l0.52,0.35l2.26-3.56l-0.5-0.33c-3.29-2.19-7.69-3.55-11.49-3.55c-6.36,0-10.97,3.91-10.97,9.43c0,5.98,5.83,7.66,10.97,9.14&#xA;&#x9;&#x9;&#x9;&#x9;l0.27,0.08c4.31,1.21,7.87,2.48,7.87,5.81c0,3.16-2.86,5.36-6.96,5.36c-3.78,0-7.44-1.35-10.9-4l-0.5-0.38l-2.51,3.38l0.46,0.37&#xA;&#x9;&#x9;&#x9;&#x9;c3.5,2.85,8.71,4.7,13.27,4.7c6.64,0,11.46-4.12,11.46-9.8v-0.12C1725.56,1115.41,1720.22,1113.42,1714.76,1111.89z"></path>
&#x9;&#x9;&#x9;<path class="st0" d="M1754.21,1097.2c-4.86,0-8.99,2.17-12.32,6.46v-5.72h-4.25v42.52h4.25v-15.34&#xA;&#x9;&#x9;&#x9;&#x9;c3.25,4.13,7.38,6.22,12.32,6.22c7.81,0,15.9-6.38,15.9-17.19C1770.11,1103.54,1762.02,1097.2,1754.21,1097.2z M1765.61,1114.39&#xA;&#x9;&#x9;&#x9;&#x9;c0,7.67-4.71,12.82-11.71,12.82c-5.87,0-12.2-4.92-12.2-13c0-7.95,6.33-12.88,12.2-12.88c6.67,0,11.71,5.56,11.71,12.94V1114.39z&#xA;&#x9;&#x9;&#x9;&#x9;"></path>
&#x9;&#x9;&#x9;<rect x="1782.43" y="1097.94" class="st0" width="4.25" height="32.66"></rect>
&#x9;&#x9;&#x9;<rect x="1782.06" y="1085.62" class="st0" width="4.99" height="5.36"></rect>
&#x9;&#x9;&#x9;<path class="st0" d="M1805.28,1104.99v-7.05h-4.25v32.66h4.25v-13.49c0-10.43,6.53-15.1,13-15.1h0.92v-4.54l-0.59-0.02&#xA;&#x9;&#x9;&#x9;&#x9;C1813.29,1097.23,1808.28,1100.14,1805.28,1104.99z"></path>
&#x9;&#x9;&#x9;<rect x="1829.44" y="1085.62" class="st0" width="4.99" height="5.36"></rect>
&#x9;&#x9;&#x9;<rect x="1829.8" y="1097.94" class="st0" width="4.25" height="32.66"></rect>
&#x9;&#x9;&#x9;<path class="st0" d="M1863.39,1097.2c-4.55,0-8.15,1.73-10.72,5.14v-4.4h-4.25v32.66h4.25v-18.79c0-6.14,4.33-10.6,10.29-10.6&#xA;&#x9;&#x9;&#x9;&#x9;c5.86,0,9.37,3.78,9.37,10.11v19.29h4.25v-19.84C1876.57,1102.52,1871.4,1097.2,1863.39,1097.2z"></path>
&#x9;&#x9;&#x9;<path class="st0" d="M1916.06,1103.03c-2.48-2.92-6.47-5.83-12.51-5.83c-7.56,0-15.71,5.94-15.71,15.53v0.12&#xA;&#x9;&#x9;&#x9;&#x9;c0,9.64,7.99,15.4,15.71,15.4c4.9,0,9.19-2.09,12.51-6.06v2.74c0,7.25-4.38,11.58-11.71,11.58c-4.46,0-8.61-1.45-12.32-4.31&#xA;&#x9;&#x9;&#x9;&#x9;l-0.5-0.39l-2.52,3.47l0.49,0.36c4.4,3.27,9.37,4.93,14.78,4.93c4.81,0,9.02-1.55,11.84-4.37c2.74-2.74,4.19-6.58,4.19-11.1&#xA;&#x9;&#x9;&#x9;&#x9;v-27.17h-4.25V1103.03z M1916.25,1112.79c0,7-6.43,11.34-12.39,11.34c-6.46,0-11.52-5.01-11.52-11.4v-0.12&#xA;&#x9;&#x9;&#x9;&#x9;c0-6.53,4.85-11.28,11.52-11.28c6.09,0,12.39,4.24,12.39,11.34V1112.79z"></path>
&#x9;&#x9;&#x9;<polygon class="st0" points="1987.9,1106.2 1961.53,1106.2 1961.53,1086.23 1957.1,1086.23 1957.1,1130.6 1961.53,1130.6 &#xA;&#x9;&#x9;&#x9;&#x9;1961.53,1110.39 1987.9,1110.39 1987.9,1130.6 1992.34,1130.6 1992.34,1086.23 1987.9,1086.23 &#x9;&#x9;&#x9;"></polygon>
&#x9;&#x9;&#x9;<path class="st0" d="M2020.31,1097.2c-8.71,0-15.53,7.47-15.53,17.01v0.12c0,9.7,6.89,17.01,16.02,17.01&#xA;&#x9;&#x9;&#x9;&#x9;c6.89,0,10.81-3.27,13.45-6.11l0.43-0.46l-3.02-2.66l-0.41,0.44c-3.02,3.23-6.3,4.73-10.33,4.73c-6.2,0-10.91-4.55-11.65-11.15&#xA;&#x9;&#x9;&#x9;&#x9;h25.93l0.07-0.54c0.06-0.52,0.07-0.72,0.07-1.31C2035.34,1104.22,2029.16,1097.2,2020.31,1097.2z M2009.28,1112.17&#xA;&#x9;&#x9;&#x9;&#x9;c0.78-6.39,5.28-10.97,10.9-10.97c6.99,0,10.04,5.76,10.6,10.97H2009.28z"></path>
&#x9;&#x9;&#x9;<path class="st0" d="M2058.63,1097.45c-4.8,0-8.46,1.4-11.41,2.77l-0.54,0.25l1.59,3.81l0.59-0.3c3.28-1.68,6.33-2.46,9.58-2.46&#xA;&#x9;&#x9;&#x9;&#x9;c6.28,0,9.74,3.19,9.74,9v0.56c-2.52-0.63-5.51-1.18-9.8-1.18c-8.86,0-14.36,4.16-14.36,10.84v0.12&#xA;&#x9;&#x9;&#x9;&#x9;c0,6.88,6.42,10.47,12.75,10.47c5.75,0,9.37-2.62,11.4-4.85v4.11h4.19v-20.21c0-3.99-1.11-7.03-3.39-9.31&#xA;&#x9;&#x9;&#x9;&#x9;C2066.61,1098.7,2063.03,1097.45,2058.63,1097.45z M2068.25,1118.21c0,5.16-4.85,9.06-11.28,9.06c-4.23,0-8.5-2.26-8.5-6.72&#xA;&#x9;&#x9;&#x9;&#x9;c0-4.21,3.64-6.72,9.74-6.72c4.2,0,7.54,0.66,10.04,1.28V1118.21z"></path>
&#x9;&#x9;&#x9;<rect x="2086.11" y="1084.39" class="st0" width="4.25" height="46.21"></rect>
&#x9;&#x9;&#x9;<path class="st0" d="M2110.63,1087.9h-4.25v10.04h-4.56v4h4.56v19.96c0,5.7,3.61,9.24,9.43,9.24c1.97,0,3.63-0.36,5.37-1.17&#xA;&#x9;&#x9;&#x9;&#x9;l0.36-0.17v-4.18l-0.87,0.39c-1.69,0.76-2.92,1.06-4.37,1.06c-3.81,0-5.67-1.79-5.67-5.48v-19.66h11.03v-4h-11.03V1087.9z"></path>
&#x9;&#x9;&#x9;<path class="st0" d="M2148.03,1097.2c-4.55,0-8.15,1.73-10.72,5.14v-17.96h-4.25v46.21h4.25v-18.79c0-6.14,4.33-10.6,10.29-10.6&#xA;&#x9;&#x9;&#x9;&#x9;c5.86,0,9.37,3.78,9.37,10.11v19.29h4.25v-19.84C2161.22,1102.52,2156.04,1097.2,2148.03,1097.2z"></path>
&#x9;&#x9;</g>
&#x9;&#x9;<g>
&#x9;&#x9;&#x9;<g>
&#x9;&#x9;&#x9;&#x9;<polygon class="st0" points="1052.05,931.43 1094.15,931.43 1094.15,1043.91 1108.05,1043.91 1108.05,931.43 1150.14,931.43 &#xA;&#x9;&#x9;&#x9;&#x9;&#x9;1150.14,918.22 1052.05,918.22 &#x9;&#x9;&#x9;&#x9;"></polygon>
&#x9;&#x9;&#x9;&#x9;<polygon class="st0" points="1191.55,987.15 1260.72,987.15 1260.72,973.94 1191.55,973.94 1191.55,931.43 1268.49,931.43 &#xA;&#x9;&#x9;&#x9;&#x9;&#x9;1268.49,918.22 1177.65,918.22 1177.65,1043.91 1269.35,1043.91 1269.35,1030.7 1191.55,1030.7 &#x9;&#x9;&#x9;&#x9;"></polygon>
&#x9;&#x9;&#x9;&#x9;<polygon class="st0" points="1312.31,918.22 1298.41,918.22 1298.41,1043.91 1383.21,1043.91 1383.21,1030.7 1312.31,1030.7 &#xA;&#x9;&#x9;&#x9;&#x9;&#x9;&#x9;&#x9;&#x9;&#x9;"></polygon>
&#x9;&#x9;&#x9;&#x9;<polygon class="st0" points="1424.27,987.15 1493.45,987.15 1493.45,973.94 1424.27,973.94 1424.27,931.43 1501.21,931.43 &#xA;&#x9;&#x9;&#x9;&#x9;&#x9;1501.21,918.22 1410.37,918.22 1410.37,1043.91 1502.07,1043.91 1502.07,1030.7 1424.27,1030.7 &#x9;&#x9;&#x9;&#x9;"></polygon>
&#x9;&#x9;&#x9;&#x9;<path class="st0" d="M1628.47,1014.84c-13.04,12.85-24.58,18.1-39.85,18.1c-27.25,0-48.6-22.79-48.6-51.88v-0.34&#xA;&#x9;&#x9;&#x9;&#x9;&#x9;c0-29.38,20.82-51.53,48.43-51.53c18.81,0,30.27,8.63,39,17.08l1.77,1.71l9.87-10.13l-1.87-1.72&#xA;&#x9;&#x9;&#x9;&#x9;&#x9;c-11.31-10.37-25.03-19.97-48.59-19.97c-35.24,0-62.85,28.51-62.85,64.92v0.35c0,17.52,6.31,33.77,17.76,45.76&#xA;&#x9;&#x9;&#x9;&#x9;&#x9;c11.59,12.13,27.48,18.81,44.74,18.81c24.35,0,38.78-11,49.69-21.76l1.79-1.77l-9.57-9.3L1628.47,1014.84z"></path>
&#x9;&#x9;&#x9;&#x9;<polygon class="st0" points="1749.88,974.11 1677.52,974.11 1677.52,918.22 1663.62,918.22 1663.62,1043.91 1677.52,1043.91 &#xA;&#x9;&#x9;&#x9;&#x9;&#x9;1677.52,987.32 1749.88,987.32 1749.88,1043.91 1763.78,1043.91 1763.78,918.22 1749.88,918.22 &#x9;&#x9;&#x9;&#x9;"></polygon>
&#x9;&#x9;&#x9;&#x9;<polygon class="st0" points="1813.81,987.15 1882.99,987.15 1882.99,973.94 1813.81,973.94 1813.81,931.43 1890.75,931.43 &#xA;&#x9;&#x9;&#x9;&#x9;&#x9;1890.75,918.22 1799.91,918.22 1799.91,1043.91 1891.61,1043.91 1891.61,1030.7 1813.81,1030.7 &#x9;&#x9;&#x9;&#x9;"></polygon>
&#x9;&#x9;&#x9;&#x9;<path class="st0" d="M2018.01,1014.84c-13.04,12.85-24.58,18.1-39.85,18.1c-27.25,0-48.6-22.79-48.6-51.88v-0.34&#xA;&#x9;&#x9;&#x9;&#x9;&#x9;c0-29.38,20.82-51.53,48.43-51.53c18.81,0,30.27,8.63,39,17.08l1.77,1.71l9.87-10.13l-1.87-1.72&#xA;&#x9;&#x9;&#x9;&#x9;&#x9;c-11.31-10.37-25.03-19.97-48.59-19.97c-35.24,0-62.85,28.51-62.85,64.92v0.35c0,17.52,6.31,33.77,17.76,45.76&#xA;&#x9;&#x9;&#x9;&#x9;&#x9;c11.59,12.13,27.48,18.81,44.74,18.81c24.35,0,38.78-11,49.69-21.76l1.79-1.77l-9.57-9.3L2018.01,1014.84z"></path>
&#x9;&#x9;&#x9;&#x9;<polygon class="st0" points="2104.31,974.15 2159.69,918.22 2140.49,918.22 2067.06,993.96 2067.06,918.22 2053.16,918.22 &#xA;&#x9;&#x9;&#x9;&#x9;&#x9;2053.16,1043.91 2067.06,1043.91 2067.06,1011.75 2094.43,984.06 2143.12,1043.91 2161.22,1043.91 &#x9;&#x9;&#x9;&#x9;"></polygon>
&#x9;&#x9;&#x9;</g>
&#x9;&#x9;&#x9;<path class="st1" d="M971.56,859.42h-142.9c-25.15,0-45.61,20.47-45.61,45.62v142.9c0,25.15,20.46,45.61,45.61,45.61h34.79&#xA;&#x9;&#x9;&#x9;&#x9;c23.08,0,42.19-17.23,45.19-39.5c8.27-2.19,15.36-7.56,19.8-15.26l49.87-86.37c5.91-10.24,5.91-22.47,0-32.72&#xA;&#x9;&#x9;&#x9;&#x9;c-5.91-10.24-16.51-16.36-28.34-16.36h-2.28c-2.26-3.33-6.08-5.53-10.41-5.53c-6.94,0-12.56,5.62-12.56,12.56&#xA;&#x9;&#x9;&#x9;&#x9;c0,6.94,5.62,12.56,12.56,12.56c4.33,0,8.15-2.19,10.41-5.53h2.28c6.74,0,12.78,3.49,16.15,9.33c3.37,5.84,3.37,12.81,0,18.65&#xA;&#x9;&#x9;&#x9;&#x9;l-49.87,86.37c-3.37,5.84-9.41,9.32-16.15,9.32c-6.74,0-12.78-3.49-16.15-9.32l-49.86-86.37c-3.37-5.84-3.37-12.81,0-18.65&#xA;&#x9;&#x9;&#x9;&#x9;c3.37-5.84,9.41-9.33,16.15-9.33h2.27c2.26,3.33,6.08,5.53,10.41,5.53c6.94,0,12.56-5.62,12.56-12.56&#xA;&#x9;&#x9;&#x9;&#x9;c0-6.94-5.62-12.56-12.56-12.56c-4.33,0-8.15,2.19-10.41,5.53h-2.27c-11.83,0-22.42,6.12-28.34,16.36&#xA;&#x9;&#x9;&#x9;&#x9;c-5.91,10.24-5.92,22.47,0,32.72l49.86,86.37c4.75,8.22,12.51,13.78,21.51,15.65c-2.99,13.72-15.22,24.03-29.83,24.03h-34.79&#xA;&#x9;&#x9;&#x9;&#x9;c-16.84,0-30.54-13.7-30.54-30.54v-142.9c0-16.84,13.7-30.55,30.54-30.55h142.9c16.84,0,30.55,13.71,30.55,30.55v142.9&#xA;&#x9;&#x9;&#x9;&#x9;c0,16.84-13.71,30.54-30.55,30.54h-10.83c-2.71-5.86-8.62-9.94-15.5-9.94c-9.43,0-17.08,7.65-17.08,17.08s7.65,17.08,17.08,17.08&#xA;&#x9;&#x9;&#x9;&#x9;c6.57,0,12.27-3.71,15.12-9.15h11.2c25.15,0,45.62-20.46,45.62-45.61v-142.9C1017.18,879.89,996.71,859.42,971.56,859.42z"></path>
&#x9;&#x9;</g>
&#x9;</g>
&#x9;<g>
&#x9;&#x9;<path class="st0" d="M2204.37,888.03v-0.08c0-2.12-0.84-4.18-2.31-5.65c-1.88-1.88-4.8-2.92-8.21-2.92h-12.2v28.69h3.9v-11.09&#xA;&#x9;&#x9;&#x9;h7.33l8.53,11.09h4.94l-9.07-11.74C2201.75,895.23,2204.37,892.21,2204.37,888.03z M2185.55,893.27v-10.14h8.19&#xA;&#x9;&#x9;&#x9;c4.28,0,6.73,1.78,6.73,4.9v0.08c0,3.14-2.69,5.16-6.85,5.16H2185.55z"></path>
&#x9;&#x9;<path class="st0" d="M2191.45,868.23c-14.06,0-25.5,11.44-25.5,25.5c0,14.06,11.44,25.5,25.5,25.5s25.5-11.44,25.5-25.5&#xA;&#x9;&#x9;&#x9;C2216.95,879.67,2205.51,868.23,2191.45,868.23z M2191.45,916.05c-12.3,0-22.31-10.01-22.31-22.31c0-12.3,10.01-22.31,22.31-22.31&#xA;&#x9;&#x9;&#x9;s22.31,10.01,22.31,22.31C2213.76,906.04,2203.75,916.05,2191.45,916.05z"></path>
&#x9;</g>
</g>
</svg>